# xmcd CD database file
#
# Track frame offsets:
#	150
#	19015
#	46307
#	61945
#	88207
#	112082
#	132495
#	155555
#	170977
#	183057
#	208445
#	218382
#	231620
#
# Disc length: 3375 seconds
#
# Revision: 3
# Processed by: cddbd v1.5.2PL0 Copyright (c) Steve Scherf et al.
# Submitted via: CDex 1.72
#
DISCID=c20d2d0d
DTITLE=del Junco, Carlos Band [CDN-95-Just Your Fool-blues) - Just Your Fool
DYEAR=1995
DGENRE=Blues
TTITLE0=B Thing - Intro
TTITLE1=Just Your Fool
TTITLE2=Up The Line
TTITLE3=Key To The Highway
TTITLE4=Rocket 88
TTITLE5=Forty Four
TTITLE6=Walkin' Blues
TTITLE7=I Know Your Wig Is Gone
TTITLE8=Quiet Whiskey
TTITLE9=Just Your Fool (fast version)
TTITLE10=B Thing - Outro
TTITLE11=Harpin' On A Riff
TTITLE12=Jersey Bounce
EXTD=YEAR: 1995
EXTT0=
EXTT1=
EXTT2=
EXTT3=
EXTT4=
EXTT5=
EXTT6=
EXTT7=
EXTT8=
EXTT9=
EXTT10=
EXTT11=
EXTT12=
PLAYORDER=
